<svg xmlns="http://www.w3.org/2000/svg" width="260" height="48" viewBox="0 0 260 48">
  <g fill="none" fill-rule="evenodd">
    <text fill="#5A5F69" font-family="Montserrat-Regular, Montserrat" font-size="13">
      <tspan x="218.5" y="21">search</tspan>
    </text>
    <path fill="#000" d="M0.114186851,16.6712803 L14.7903042,2.66225916 C17.4955858,0.0799449138 21.741904,0.0444298671 24.4899996,2.58113355 L31.1176471,8.69896194 L35.9544846,4.55310121 C40.2091587,0.906237671 46.5642038,1.18864932 50.4786197,5.1985388 L61.6782007,16.6712803 L31.1176471,47.2318339 L0.114186851,16.6712803 Z M7.20069204,16.6712803 L15.6624103,25.1329985 L27.869463,12.5935093 C28.2107166,12.2429622 28.2031828,11.682147 27.8526358,11.3408933 C27.8483508,11.3367219 27.8440236,11.332594 27.839655,11.3285102 L22.1083223,5.97085985 C20.9309571,4.87025875 19.0943628,4.89657833 17.9490193,6.03046535 L7.20069204,16.6712803 Z M18.716263,28.6297578 L30.9424278,40.8572188 L55.3405127,16.4591339 L47.228133,8.59746415 C44.8802017,6.3220948 41.1427449,6.34547859 38.8234685,8.65004882 L18.716263,28.6297578 Z"/>
    <text fill="#050708" font-family="Montserrat-Medium, Montserrat" font-size="32" font-weight="400">
      <tspan x="71.5" y="35">BROGAN</tspan>
    </text>
  </g>
</svg>
