<svg xmlns="http://www.w3.org/2000/svg" width="162" height="47" viewBox="0 0 162 47">
  <g fill="none" fill-rule="evenodd">
    <path fill="#377DFF" d="M56.426,13.4468516 C57.7953402,13.4468516 58.9869949,13.633183 60.001,14.0058516 C61.0150051,14.3785201 61.7993306,14.9115148 62.354,15.6048516 C62.9086694,16.2981884 63.186,17.1128469 63.186,18.0488516 C63.186,19.0021897 62.9043361,19.8341813 62.341,20.5448516 C61.7776639,21.2555218 61.0106715,21.7408503 60.04,22.0008516 C61.2013391,22.226186 62.1156633,22.7548474 62.783,23.5868516 C63.4503367,24.4188557 63.784,25.424179 63.784,26.6028516 C63.784,27.6255233 63.4980029,28.5225144 62.926,29.2938516 C62.3539971,30.0651888 61.5393386,30.6545162 60.482,31.0618516 C59.4246614,31.4691869 58.1853404,31.6728516 56.764,31.6728516 L47.768,31.6728516 L47.768,13.4468516 L56.426,13.4468516 Z M56.166,20.7008516 C56.82467,20.7008516 57.3446648,20.5405198 57.726,20.2198516 C58.1073352,19.8991833 58.298,19.4528544 58.298,18.8808516 C58.298,18.3261821 58.1073352,17.8971864 57.726,17.5938516 C57.3446648,17.2905167 56.82467,17.1475181 56.166,17.1648516 L52.526,17.1648516 L52.526,20.7008516 L56.166,20.7008516 Z M56.166,27.9808516 C56.9980042,27.9808516 57.6566642,27.80752 58.142,27.4608516 C58.6273358,27.1141832 58.87,26.6288547 58.87,26.0048516 C58.87,25.4328487 58.6273358,24.9778533 58.142,24.6398516 C57.6566642,24.3018499 56.9980042,24.1415181 56.166,24.1588516 L52.526,24.1588516 L52.526,27.9808516 L56.166,27.9808516 Z M77.33,31.6728516 L74.678,26.6288516 L71.142,26.6288516 L71.142,31.6728516 L66.384,31.6728516 L66.384,13.4468516 L74.574,13.4468516 C76.9833454,13.4468516 78.8509934,14.005846 80.177,15.1238516 C81.5030066,16.2418572 82.166,17.8148414 82.166,19.8428516 C82.166,21.2121917 81.8886694,22.3951799 81.334,23.3918516 C80.7793306,24.3885232 79.9733386,25.1641821 78.916,25.7188516 L82.712,31.6728516 L77.33,31.6728516 Z M71.142,22.8328516 L74.6,22.8328516 C75.5706715,22.8328516 76.3203307,22.5901873 76.849,22.1048516 C77.3776693,21.6195158 77.642,20.9175228 77.642,19.9988516 C77.642,19.1148471 77.3776693,18.4345206 76.849,17.9578516 C76.3203307,17.4811825 75.5706715,17.2428516 74.6,17.2428516 L71.142,17.2428516 L71.142,22.8328516 Z M92.892,13.1608516 C94.7466759,13.1608516 96.4236592,13.5681808 97.923,14.3828516 C99.4223408,15.1975223 100.600996,16.3155111 101.459,17.7368516 C102.317004,19.158192 102.746,20.7528427 102.746,22.5208516 C102.746,24.3061938 102.317004,25.9181777 101.459,27.3568516 C100.600996,28.7955254 99.4223408,29.9308474 97.923,30.7628516 C96.4236592,31.5948557 94.7466759,32.0108516 92.892,32.0108516 C91.0373241,32.0108516 89.3603408,31.599189 87.861,30.7758516 C86.3616592,29.9525141 85.1830043,28.8171921 84.325,27.3698516 C83.4669957,25.922511 83.038,24.3061938 83.038,22.5208516 C83.038,20.7528427 83.4669957,19.158192 84.325,17.7368516 C85.1830043,16.3155111 86.3616592,15.1975223 87.861,14.3828516 C89.3603408,13.5681808 91.0373241,13.1608516 92.892,13.1608516 Z M92.944,17.1908516 C92.0426622,17.1908516 91.2063372,17.4248492 90.435,17.8928516 C89.6636628,18.3608539 89.0526689,19.0065141 88.602,19.8298516 C88.1513311,20.653189 87.926,21.5588466 87.926,22.5468516 C87.926,23.5521899 88.1556644,24.4665141 88.615,25.2898516 C89.0743356,26.113189 89.6853295,26.7631825 90.448,27.2398516 C91.2106705,27.7165206 92.0426622,27.9548516 92.944,27.9548516 C93.8453378,27.9548516 94.6729962,27.7165206 95.427,27.2398516 C96.1810038,26.7631825 96.7746645,26.113189 97.208,25.2898516 C97.6413355,24.4665141 97.858,23.5521899 97.858,22.5468516 C97.858,21.5588466 97.6413355,20.653189 97.208,19.8298516 C96.7746645,19.0065141 96.1810038,18.3608539 95.427,17.8928516 C94.6729962,17.4248492 93.8453378,17.1908516 92.944,17.1908516 Z M116.864,22.3648516 L120.972,22.3648516 L120.972,29.6188516 C120.001328,30.3295218 118.809674,30.9058494 117.397,31.3478516 C115.984326,31.7898538 114.64534,32.0108516 113.38,32.0108516 C111.542657,32.0108516 109.883007,31.599189 108.401,30.7758516 C106.918993,29.9525141 105.753338,28.8215254 104.904,27.3828516 C104.054662,25.9441777 103.63,24.3321938 103.63,22.5468516 C103.63,20.7788427 104.067662,19.1798587 104.943,17.7498516 C105.818338,16.3198444 107.022992,15.1975223 108.557,14.3828516 C110.091008,13.5681808 111.802657,13.1608516 113.692,13.1608516 C115.044007,13.1608516 116.395993,13.4078491 117.748,13.9018516 C119.100007,14.395854 120.243995,15.0588474 121.18,15.8908516 L118.476,19.2188516 C117.81733,18.5948484 117.059004,18.1008534 116.201,17.7368516 C115.342996,17.3728497 114.498004,17.1908516 113.666,17.1908516 C112.695328,17.1908516 111.820004,17.4248492 111.04,17.8928516 C110.259996,18.3608539 109.644669,19.0021808 109.194,19.8168516 C108.743331,20.6315223 108.518,21.5415132 108.518,22.5468516 C108.518,23.5695233 108.743331,24.4925141 109.194,25.3158516 C109.644669,26.139189 110.268663,26.7848492 111.066,27.2528516 C111.863337,27.7208539 112.747328,27.9548516 113.718,27.9548516 C114.636671,27.9548516 115.685327,27.6601878 116.864,27.0708516 L116.864,22.3648516 Z M137.508,31.6728516 L136.26,28.4488516 L128.382,28.4488516 L127.108,31.6728516 L122.22,31.6728516 L130.046,13.4468516 L134.934,13.4468516 L142.578,31.6728516 L137.508,31.6728516 Z M129.812,24.8088516 L134.856,24.8088516 L132.36,18.3088516 L129.812,24.8088516 Z M156.67,13.4468516 L161.09,13.4468516 L161.09,31.6728516 L156.93,31.6728516 L148.662,20.7788516 L148.662,31.6728516 L144.216,31.6728516 L144.216,13.4468516 L148.402,13.4468516 L156.696,24.4188516 L156.67,13.4468516 Z"/>
    <text fill="#5A5F69" font-family="Montserrat-Regular, Montserrat" font-size="9" letter-spacing="1.7">
      <tspan x="115.326" y="42.173">SEARC</tspan> <tspan x="154.579" y="42.173">H</tspan>
    </text>
    <path fill="#3A93FC" d="M4.73951812,4.74883136 C4.91686075,4.72847798 5.01831209,4.7067046 5.11976343,4.7067046 C12.6915362,4.70607348 20.2634667,4.68808678 27.8352394,4.71885351 C30.4743942,4.72958243 32.5914613,6.91717627 32.6369014,9.59467123 C32.6694037,11.5134111 32.6610414,13.4334133 32.6367436,15.3524687 C32.6209658,16.6066471 32.111658,17.643565 31.0936734,18.4020045 C29.955462,19.2497465 28.8204061,20.1025373 27.6590012,20.9177769 C27.4316429,21.0772906 27.0676487,21.1847375 26.8049481,21.1304618 C23.1031575,20.3652379 19.4070469,19.5719294 15.7139341,18.7653676 C15.5351715,18.7262386 15.2663175,18.5062959 15.2609531,18.3624022 C15.2219819,17.3202776 15.2401264,16.2759442 15.2401264,15.1448327 L16.1784329,15.1448327 C19.4911427,15.1446749 22.8040102,15.1473572 26.1167199,15.1434127 C27.6629457,15.1416771 28.6784057,14.2571729 28.7140636,12.8971254 C28.7508259,11.4834333 27.7486192,10.4719177 26.2036557,10.4633976 C22.3387225,10.4419398 18.4734737,10.4234798 14.6091716,10.4698666 C12.1492527,10.4993711 10.5504869,12.175606 10.5222446,14.6358404 C10.5033112,16.2920375 10.5088334,17.948708 10.5211401,19.604905 C10.5353402,21.5053427 11.4502956,22.6514431 13.3183887,23.054724 C19.6307763,24.4176115 23.9453729,25.7702435 30.2624939,27.1104109 C31.5191967,27.3768982 32.8577864,27.9562988 32.8577864,29.2536691 C32.8577864,30.5510394 32.7618573,31.5463432 31.211056,31.5466588 C25.5056408,31.5482366 21.8003835,31.547921 16.0951261,31.5460277 C15.8387366,31.5458699 15.5823471,31.5245698 15.2286086,31.508792 C15.2286086,30.7596614 15.2563775,30.055971 15.2229286,29.355436 C15.1547684,27.9289639 14.1434106,26.9512128 12.8062409,26.9797707 C11.500469,27.0078552 10.552538,27.9928641 10.5244535,29.3923561 C10.5022067,30.496172 10.5003134,31.60125 10.5242957,32.7050659 C10.5686313,34.7456105 11.9518723,36.2200472 13.9950991,36.2312494 C20.6203608,36.2675384 25.2465692,36.2967273 31.8710419,36.2197316 C35.3303276,36.1794982 37.842471,33.3623696 37.735813,29.9092373 C37.6386217,26.7620368 37.3541521,23.4228516 34.5204568,22.8739102 C34.1953091,22.8109229 33.8841375,22.6587009 33.4903233,22.5258517 C33.7558639,22.3082756 33.9548221,22.1459219 34.1531493,21.9827793 C36.2266695,20.2789332 37.2992453,18.0771394 37.3541521,15.4024844 C37.3926499,13.5366002 37.3653543,11.6691382 37.3610943,9.80246504 C37.3492609,4.27975696 33.0789957,0.00665171681 27.5577076,0.00286504156 C19.8278412,-0.00218385878 12.0981326,0.000656147661 4.36826617,0.00223392902 C1.65937336,0.00270726342 0.00112515606,1.66347992 0.000809599789,4.37600162 C-0.000294847159,17.0749326 -0.000294847159,29.7738637 0.000967377925,42.4729524 C0.0012829342,45.1813719 1.66300226,46.8408823 4.3737884,46.8415135 C11.262224,46.8429335 18.1506596,46.8419868 25.039253,46.8419868 C28.5359321,46.8419868 30.0327689,46.8525579 33.5296057,46.8380423 C35.8544665,46.8282601 37.5650971,45.1256762 37.6031216,42.8184866 C37.6136927,42.1875318 37.6129039,41.5564193 37.6042261,40.9254645 C37.5841882,39.477219 36.6444617,38.4871612 35.2896208,38.47659 C33.9324133,38.4658611 32.9540311,39.4379322 32.8945487,40.8697688 C32.8775087,41.2773097 32.8918665,41.6862707 32.8918665,42.0832404 L4.73951812,42.0832404 L4.73951812,4.74883136 Z"/>
  </g>
</svg>
