<svg data-reactid=".1r2qg7nut8.1.0.1.0"><svg xmlns="http://www.w3.org/2000/svg" viewBox="0 0 170.06 30.94"><defs><style>.cls-logo{fill:#134e5a;}</style></defs><title>Asset 1</title><g id="Layer_2" data-name="Layer 2"><g id="ARTWORK"><path class="cls-logo" d="M0,23V21.41Q0,21,.41,21H3V2.55H.41A.37.37,0,0,1,0,2.16V.58Q0,.19.41.19H17.86c.27,0,.44.13.44.39V5.75c0,.26-.17.39-.44.39H15.92c-.27,0-.41-.13-.41-.39V2.55H5.9v8.07h8c.27,0,.41.13.41.39v1.58a.37.37,0,0,1-.41.39h-8v8H9.72q.41,0,.41.39V23q0,.39-.41.39H.41A.37.37,0,0,1,0,23Z"></path><path class="cls-logo" d="M26.93,21.34a6.83,6.83,0,0,0,5.42-2.49.36.36,0,0,1,.58-.1l.95.87a.41.41,0,0,1,.1.58,8.63,8.63,0,0,1-7.22,3.39c-4.57,0-8.3-3.07-8.3-8.23a7.79,7.79,0,0,1,8-8.11c5,0,7.56,3.1,7.56,8.36a.4.4,0,0,1-.44.42H21.31A5.35,5.35,0,0,0,26.93,21.34ZM26.52,9.53a4.93,4.93,0,0,0-5.15,4.36h9.86A4.37,4.37,0,0,0,26.52,9.53Z"></path><path class="cls-logo" d="M37.13,23V21.6c0-.26.17-.39.44-.39h1.9V2.36h-1.9c-.27,0-.44-.13-.44-.39V.58c0-.26.17-.39.44-.39h3.76c.68,0,.92.26.92.81V21.22H44c.27,0,.44.13.44.39V23c0,.26-.17.39-.44.39H37.57C37.3,23.38,37.13,23.25,37.13,23Z"></path><path class="cls-logo" d="M48.81,23V21.6q0-.39.41-.39h1.9V9.66h-1.9q-.41,0-.41-.39V7.88q0-.39.41-.39h4.27c.27,0,.44.13.44.39V21.22h1.8q.41,0,.41.39V23a.37.37,0,0,1-.41.39H49.22Q48.81,23.38,48.81,23ZM52.07,4.52a1.93,1.93,0,0,1-2-1.87,2,2,0,0,1,2-1.94,2,2,0,0,1,2,1.94A2,2,0,0,1,52.07,4.52Z"></path><path class="cls-logo" d="M70.73,23V21.6c0-.26.17-.39.44-.39H72.8L69,17l-3.69,4.23h1.36c.27,0,.44.13.44.39V23c0,.26-.17.39-.44.39H61c-.27,0-.44-.13-.44-.39V21.6c0-.26.17-.39.44-.39h1.32l5.32-5.81L62.53,9.66H61q-.41,0-.41-.39V7.88q0-.39.41-.39h6.37q.41,0,.41.39V9.27a.37.37,0,0,1-.41.39H65.75L69.58,14l3.56-4.29H71.78c-.27,0-.44-.13-.44-.39V7.91c0-.26.17-.39.44-.39h5.69c.27,0,.44.13.44.39V9.3c0,.26-.17.39-.44.39H76.15L71,15.56l5,5.65h1.46c.27,0,.44.13.44.39V23c0,.26-.17.39-.44.39H71.17C70.9,23.38,70.73,23.25,70.73,23Z"></path><path class="cls-logo" d="M111.32,23V20.76a10.8,10.8,0,0,1-7.86,2.84c-6.61,0-11.66-4.65-11.66-11.95A11.22,11.22,0,0,1,103.33,0c4.4,0,6.54,1.78,7.45,3.07l0-2.49q0-.39.41-.39H113q.41,0,.41.39V7.23q0,.39-.41.39H111c-.27,0-.44-.13-.44-.39V6.85c0-1.71-2.81-4.29-7-4.29-4.4,0-8.64,3.49-8.64,9.2,0,6.07,4.44,9.3,8.74,9.3,4.07,0,6.37-1.74,7.49-3.13V15.11h-6.34a.39.39,0,0,1-.41-.42V13.17a.37.37,0,0,1,.41-.42h8.74a.37.37,0,0,1,.41.42V23q0,.39-.41.39h-1.76Q111.32,23.38,111.32,23Z"></path><path class="cls-logo" d="M118.54,23V21.6q0-.39.41-.39h1.9V9.66h-1.9a.37.37,0,0,1-.41-.39V7.88q0-.39.41-.39h4q.41,0,.41.39v4h.1s1.15-4.49,7.28-4.49a.4.4,0,0,1,.44.42V9.56a.4.4,0,0,1-.44.42H130a6,6,0,0,0-6.37,5.81v5.43h1.8q.41,0,.41.39V23q0,.39-.41.39h-6.51A.37.37,0,0,1,118.54,23Z"></path><path class="cls-logo" d="M145.81,22V20.38h-.07a7.84,7.84,0,0,1-6.61,3.26c-3.15,0-5.56-1.68-5.56-4.49,0-3.68,3.73-5.1,9.08-5.1h2.85v-.42c0-3.07-1.8-4.1-4.4-4.1A7.75,7.75,0,0,0,136,11.08a.43.43,0,0,1-.51-.1l-.95-1.13c-.17-.19-.14-.35.07-.52s2-2.07,6.61-2.07c4.37,0,7.12,1.74,7.12,6.46v7.49h1.9q.41,0,.41.39V23q0,.39-.41.39h-2.95C146.28,23.38,145.81,23,145.81,22Zm-3-5.81c-3.46,0-6.3.45-6.3,2.58,0,1.45,1.32,2.52,3.42,2.52a7.26,7.26,0,0,0,5.59-2.91v-2.2Z"></path><path class="cls-logo" d="M159.56,23c-.44,0-.64-.23-.88-.81L153.49,9.66h-1.86a.37.37,0,0,1-.41-.39V7.88q0-.39.41-.39h6.13c.27,0,.44.13.44.39V9.27c0,.26-.17.39-.44.39h-1.39l4.37,10.95h.07l4.07-10.95h-1.52q-.41,0-.41-.39V7.88q0-.39.41-.39h6.3q.41,0,.41.39V9.27q0,.39-.41.39h-1.9l-6.1,15.79c-1.32,3.42-2.51,5.49-5.69,5.49a5,5,0,0,1-3.42-1.26c-.2-.19-.27-.39-.1-.58l.85-1a.44.44,0,0,1,.61,0,2.71,2.71,0,0,0,1.8.65c1.73,0,2.51-1,3.39-3.26L160,23Z"></path></g></g></svg></svg>