<?xml version="1.0" encoding="UTF-8" standalone="no"?>
<svg width="430px" height="416px" viewBox="0 0 430 416" version="1.1" xmlns="http://www.w3.org/2000/svg" xmlns:xlink="http://www.w3.org/1999/xlink" xmlns:sketch="http://www.bohemiancoding.com/sketch/ns">
    <!-- Generator: Sketch 3.2.2 (9983) - http://www.bohemiancoding.com/sketch -->
    <title>logo</title>
    <desc>Created with Sketch.</desc>
    <defs>
        <linearGradient x1="0.02%" y1="49.9893457%" x2="99.9646667%" y2="49.9893457%" id="linearGradient-1">
            <stop stop-color="#FFD600" offset="0%"></stop>
            <stop stop-color="#FFFFFF" offset="100%"></stop>
        </linearGradient>
        <linearGradient x1="68.3614845%" y1="43.941261%" x2="7.62484868%" y2="108.492538%" id="linearGradient-2">
            <stop stop-color="#FFD600" offset="15.49%"></stop>
            <stop stop-color="#FFFFFF" offset="100%"></stop>
        </linearGradient>
        <linearGradient x1="55.7612872%" y1="73.4422692%" x2="33.0512433%" y2="4.44621802%" id="linearGradient-3">
            <stop stop-color="#FFD600" offset="0%"></stop>
            <stop stop-color="#FFD705" offset="10.19%"></stop>
            <stop stop-color="#FFD914" offset="22.56%"></stop>
            <stop stop-color="#FFDD2D" offset="36.06%"></stop>
            <stop stop-color="#FFE34F" offset="50.37%"></stop>
            <stop stop-color="#FFEA7B" offset="65.33%"></stop>
            <stop stop-color="#FFF2B1" offset="80.82%"></stop>
            <stop stop-color="#FFFDF0" offset="96.46%"></stop>
            <stop stop-color="#FFFFFF" offset="100%"></stop>
        </linearGradient>
    </defs>
    <g id="Page-1" stroke="none" stroke-width="1" fill="none" fill-rule="evenodd" sketch:type="MSPage">
        <g id="logo" sketch:type="MSLayerGroup" transform="translate(-145.000000, -146.000000)">
            <g id="Group" sketch:type="MSShapeGroup">
                <g transform="translate(145.000000, 146.000000)" id="Shape">
                    <g>
                        <path d="M0.7,392.4 L135.7,376.5 L135.7,139.2 L0.7,100.5 L0.7,392.4 Z" fill="url(#linearGradient-1)"></path>
                        <path d="M396.1,236.3 L115.4,250.6 L145.4,84.5 L429.3,0 L396.1,236.3 Z" fill="url(#linearGradient-2)"></path>
                        <path d="M340.8,396.8 L135.7,415.2 L135.7,235.4 L340.8,256.7 L340.8,396.8 Z" fill="url(#linearGradient-3)"></path>
                    </g>
                    <g transform="translate(29.000000, 186.000000)" fill="#231F20">
                        <path d="M0.4,57.9 L0.4,0.4 L5.6,0.4 L5.6,53.1 L34.5,53.1 L34.5,57.9 L0.4,57.9 L0.4,57.9 Z"></path>
                        <path d="M46.7,6.4 L41.1,6.4 L41.1,0.4 L46.7,0.4 L46.7,6.4 L46.7,6.4 Z M46.3,17.9 L46.3,57.9 L41.5,57.9 L41.5,17.9 L46.3,17.9 L46.3,17.9 Z"></path>
                        <path d="M83.7,17.9 L88.6,17.9 C88.4,20.6 88.2,23.8 88.2,26.9 L88.2,50.9 C88.2,58.9 88.6,67.2 79.8,71.4 C76.6,72.9 74.5,73.2 70.7,73.2 C63.5,73.2 54.9,70.7 54.9,62.5 L60.1,62.5 C60.7,67.3 66.3,68.9 71.4,68.9 C77.6,68.9 83.3,64.5 83.5,57.8 L83.5,50.3 L83.3,50.3 C81,55 75.5,57.8 70.3,57.8 C58.3,57.8 53.1,48.6 53.1,37.7 C53.1,26.9 58,16.8 70.1,16.8 C75.9,16.8 80,19.6 83.2,24.2 L83.4,23.9 L83.7,17.9 L83.7,17.9 Z M70.6,21.1 C61.9,21.1 58.3,29.9 58.3,37.2 C58.3,44.5 62,53.4 70.8,53.4 C80,53.4 83.5,44.9 83.5,37.1 C83.5,29.4 79.2,21.1 70.6,21.1 L70.6,21.1 Z"></path>
                        <path d="M101.8,24 L102,24 C104.8,19.1 109.3,16.8 114.5,16.8 C127.6,16.8 128.6,28.3 128.6,33 L128.6,58 L123.8,58 L123.8,32.2 C123.8,25.3 119.8,21.2 113.3,21.2 C105.4,21.2 101.8,27.8 101.8,35 L101.8,58 L97,58 L97,0.5 L101.8,0.5 L101.8,24 L101.8,24 Z"></path>
                        <path d="M141.5,22.3 L133.5,22.3 L133.5,17.9 L141.5,17.9 L141.5,9.4 L146.3,7.3 L146.3,17.9 L155.4,17.9 L155.4,22.3 L146.3,22.3 L146.3,49 C146.2,52.7 148.1,54.7 151.8,54.7 C153.2,54.7 154.7,54.6 155.9,54.2 L155.9,58.3 C154.4,58.7 152.6,59 151,59 C140.9,59 141.4,52.6 141.4,47.1 L141.4,22.3 L141.5,22.3 Z"></path>
                        <path d="M5.8,129.5 L0.6,129.5 L0.6,72 L19.4,72 C24.4,72 28.6,72.3 32.9,75 C36.9,77.4 38.8,81.5 38.8,87 C38.8,93.2 34.4,97.7 27.7,99.3 L27.7,99.5 C35,100.7 36.6,105.6 37.3,112.3 C38.3,121.6 38,125.9 40.3,129.4 L34.3,129.4 C32.9,125.6 32.6,121.5 32.3,117.5 C31.1,104.4 30.3,102.1 19.9,102.1 L5.7,102.1 L5.7,129.5 L5.8,129.5 Z M16.8,97.4 C24.1,97.4 33.2,96.9 33.2,87.1 C33.2,76 22.9,76.8 17.4,76.8 L5.8,76.8 L5.8,97.3 L16.8,97.3 L16.8,97.4 Z"></path>
                        <path d="M51.5,110.7 C51.7,119.2 55.6,126.4 65.3,126.4 C71,126.4 75.6,122.3 76.8,116.8 L81.8,116.8 C79.3,126.4 73.4,130.7 63.7,130.7 C51.8,130.7 46.2,120.4 46.2,109.5 C46.2,98.7 52.2,88.3 64,88.3 C77.4,88.3 82.2,98.1 82.2,110.6 L51.5,110.6 L51.5,110.7 Z M77.2,106.3 C76.6,98.6 72.5,92.8 64.2,92.8 C56.4,92.8 52.3,99.3 51.6,106.3 L77.2,106.3 L77.2,106.3 Z"></path>
                        <path d="M115.5,101.4 C115,94.9 111.7,92.8 106,92.8 C101,92.8 96.8,94.3 96.2,99.7 L91.1,99.7 C92.3,91.5 98.4,88.4 106.1,88.4 C114.9,88.4 120.4,92.5 120.3,101.6 L120.3,120.5 C120.2,123.6 120.5,126.8 120.7,129.5 L115.8,129.5 L115.6,123.6 L115.4,123.6 L115.2,124.2 C113.4,127.5 108.1,130.7 102.7,130.7 C95.3,130.7 89.4,126.2 89.4,118.4 C89.4,113 92.7,108.8 97.4,106.9 C102.7,104.6 109.7,105.4 115.5,105.1 L115.5,101.4 L115.5,101.4 Z M103.6,126.4 C114,126.4 116,117.8 115.5,109.4 C108.7,109.6 94.6,108.4 94.6,118.4 C94.6,123.8 98.7,126.4 103.6,126.4 L103.6,126.4 Z"></path>
                        <path d="M154.8,101.9 C154.4,95.8 150.5,92.8 143.9,92.8 C136.6,92.8 132,100.4 132,109.5 C132,118.7 136.5,126.4 143.9,126.4 C150.1,126.4 154.4,122.6 154.8,117.1 L160,117.1 C158.7,126.3 153.5,130.8 144.4,130.8 C132.5,130.8 126.9,120.5 126.9,109.6 C126.9,98.8 132.9,88.4 144.7,88.4 C152.9,88.4 159.6,93.3 160,101.9 L154.8,101.9 L154.8,101.9 Z"></path>
                        <path d="M172.8,94 L164.8,94 L164.8,89.6 L172.8,89.6 L172.8,81.1 L177.6,79 L177.6,89.6 L186.7,89.6 L186.7,94 L177.6,94 L177.6,120.7 C177.5,124.4 179.4,126.4 183.1,126.4 C184.5,126.4 186,126.3 187.2,125.9 L187.2,130 C185.7,130.4 183.9,130.7 182.3,130.7 C172.2,130.7 172.7,124.3 172.7,118.8 L172.7,94 L172.8,94 Z"></path>
                        <path d="M199.5,78.1 L194,78.1 L194,72.1 L199.6,72.1 L199.6,78.1 L199.5,78.1 Z M199.1,89.6 L199.1,129.6 L194.3,129.6 L194.3,89.6 L199.1,89.6 L199.1,89.6 Z"></path>
                        <path d="M244.7,109.6 C244.7,120.1 238.8,130.8 226.1,130.8 C213.4,130.8 207.5,120.1 207.5,109.6 C207.5,99.1 213.4,88.4 226.1,88.4 C238.8,88.4 244.7,99.1 244.7,109.6 L244.7,109.6 Z M226.1,92.8 C216.5,92.8 212.6,102.2 212.6,109.6 C212.6,117 216.4,126.4 226.1,126.4 C235.7,126.4 239.6,117 239.6,109.6 C239.6,102.2 235.7,92.8 226.1,92.8 L226.1,92.8 Z"></path>
                        <path d="M256.2,129.5 L251.4,129.5 L251.4,98.5 C251.4,95.4 251.2,92.2 251,89.5 L255.9,89.5 L256.1,95.4 L256.3,95.6 C259.1,90.7 263.6,88.4 268.8,88.4 C281.9,88.4 282.9,99.9 282.9,104.6 L282.9,129.6 L278.1,129.6 L278.1,103.8 C278.1,96.9 274.1,92.8 267.6,92.8 C259.7,92.8 256.1,99.4 256.1,106.6 L256.1,129.5 L256.2,129.5 Z"></path>
                    </g>
                </g>
                <rect id="Rectangle-path" x="0" y="0" width="720" height="706.4"></rect>
            </g>
        </g>
    </g>
</svg>